#!OML:ASF F:\Work\Patient Classification 1\justin\Session 1\justin.ASF
:FULLY-SPECIFIED
:DEGREES
5249
root -0.135128 17.4573 4.21258 18.5547 56.713 18.9704
lowerback 19.8055 2.33962 4.99445
upperback 1.23178 4.12006 -1.35419
thorax -9.29324 1.74938 -5.45081
lowerneck -3.92071 -17.9131 -21.9198
upperneck -9.98053 -22.7166 26.3391
head 3.53596 -11.0531 9.57009
rclavicle 2.5842e-014 0
rhumerus 60.2186 27.2371 -30.1744
rradius 65.8556
rwrist -13.4483
rhand -4.70529 28.457
rfingers 7.12502
rthumb 21.0765 -0.417523
lclavicle 2.5842e-014 0
lhumerus -2.25367 -35.4227 89.9673
lradius 139.164
lwrist 6.89253
lhand -13.7769 3.66852
lfingers 7.12502
lthumb 12.3442 33.2841
rfemur -29.0613 -10.8009 5.82917
rtibia 51.5499
rfoot -16.6017 -16.8821
rtoes -13.6559
lfemur -9.26634 0.327116 -5.88941
ltibia 35.6813
lfoot 11.2078 -13.8883
ltoes -31.2188
5250
root -0.143478 17.4606 4.21386 18.6909 57.3052 18.8947
lowerback 19.514 2.36462 4.62635
upperback 1.32841 4.1011 -0.887235
thorax -9.08981 1.77691 -4.69867
lowerneck -3.91815 -18.0887 -22.2618
upperneck -9.93296 -22.9577 26.1113
head 3.59951 -11.1604 9.49051
rclavicle -4.77083e-015 1.11319e-014
rhumerus 58.5946 27.9469 -31.1861
rradius 67.337
rwrist -13.4322
rhand -4.52342 28.6314
rfingers 7.12502
rthumb 21.2513 -0.22356
lclavicle -4.77083e-015 1.11319e-014
lhumerus -2.07989 -35.1077 90.4304
lradius 138.853
lwrist 6.96416
lhand -13.8006 3.7343
lfingers 7.12502
lthumb 12.3214 33.3513
rfemur -29.0545 -11.1128 6.08273
rtibia 51.3872
rfoot -16.97 -17.0619
rtoes -12.2192
lfemur -9.53794 0.0526272 -5.85434
ltibia 35.6226
lfoot 10.1978 -13.7854
ltoes -32.4775
5251
root -0.147671 17.4598 4.21194 18.6433 57.926 18.6685
lowerback 19.6332 2.01521 5.48504
upperback 1.16214 3.78948 -1.39768
thorax -9.28182 1.56906 -5.68495
lowerneck -3.76184 -18.1127 -21.577
upperneck -9.64907 -23.0886 26.1644
head 3.61803 -11.2506 9.39331
rclavicle -6.36111e-015 1.59028e-014
rhumerus 56.3577 28.2867 -34.0683
rradius 68.4766
rwrist -13.5635
rhand -3.91795 28.8708
rfingers 7.12502
rthumb 21.8327 0.0824014
lclavicle -6.36111e-015 1.59028e-014
lhumerus -2.16188 -35.1207 89.4129
lradius 138.677
lwrist 7.47299
lhand -13.4257 3.85298
lfingers 7.12502
lthumb 12.6828 33.4479
rfemur -28.9168 -11.5205 6.46968
rtibia 51.1592
rfoot -16.9683 -17.4741
rtoes -14.5169
lfemur -9.84678 -0.0219085 -5.78664
ltibia 35.5273
lfoot 8.82413 -14.1418
ltoes -36.0923
5252
root -0.150689 17.4494 4.20554 18.7476 58.3877 18.6712
lowerback 19.4548 2.17269 5.13695
upperback 1.20155 3.94168 -1.06858
thorax -9.16722 1.6697 -5.14877
lowerneck -3.26702 -18.2314 -21.8156
upperneck -9.85112 -23.3102 26.0266
head 3.53183 -11.3919 9.38555
rclavicle -4.05521e-014 -1.59028e-015
rhumerus 54.0826 28.4501 -35.6529
rradius 69.6894
rwrist -13.6855
rhand -3.13454 29.1039
rfingers 7.12502
rthumb 22.5848 0.405088
lclavicle -4.05521e-014 -1.59028e-015
lhumerus -2.11761 -35.0905 89.8387
lradius 138.361
lwrist 7.40524
lhand -13.6341 3.80934
lfingers 7.12502
lthumb 12.4819 33.4166
rfemur -28.7579 -12.0647 6.72216
rtibia 50.9364
rfoot -16.4463 -17.9848
rtoes -20.333
lfemur -9.63115 -1.23949 -5.59643
ltibia 35.3664
lfoot 9.245 -12.1103
ltoes -29.075
5253
root -0.1508 17.4529 4.19784 18.7054 58.7995 18.5113
lowerback 19.3061 2.22054 4.78366
upperback 1.21745 3.9598 -0.650853
thorax -9.12051 1.70411 -4.48441
lowerneck -3.10708 -18.3073 -22.4306
upperneck -9.69232 -23.467 25.9768
head 3.64748 -11.4617 9.42185
rclavicle 5.1684e-015 1.11319e-014
rhumerus 51.8438 29.065 -37.8298
rradius 70.776
rwrist -13.2934
rhand -2.21379 29.3819
rfingers 7.12502
rthumb 23.4683 0.793226
lclavicle 5.1684e-015 1.11319e-014
lhumerus -2.42189 -34.7463 90.3792
lradius 138.189
lwrist 6.94392
lhand -14.2609 3.58664
lfingers 7.12502
lthumb 11.8776 33.2298
rfemur -28.6016 -12.5228 6.95056
rtibia 50.6872
rfoot -16.226 -18.0388
rtoes -22.5019
lfemur -9.7715 -1.47251 -5.54125
ltibia 35.1993
lfoot 8.26585 -12.1815
ltoes -31.0803
5254
root -0.150033 17.4598 4.18562 18.442 59.2645 18.1607
lowerback 19.2167 2.25134 4.61931
upperback 1.22924 3.99639 -0.278669
thorax -9.09377 1.73772 -3.9881
lowerneck -2.71326 -18.3881 -22.9034
upperneck -9.69082 -23.6589 26.0166
head 3.68851 -11.573 9.48525
rclavicle -2.90226e-014 6.36111e-015
rhumerus 49.437 29.5095 -39.8034
rradius 72.0561
rwrist -12.7425
rhand -2.15468 29.039
rfingers 7.12502
rthumb 23.525 0.457624
lclavicle -2.90226e-014 6.36111e-015
lhumerus -2.75183 -34.4789 91.1987
lradius 138.067
lwrist 6.31951
lhand -14.103 3.52692
lfingers 7.12502
lthumb 12.0298 33.1612
rfemur -28.4078 -12.9246 7.19266
rtibia 50.4487
rfoot -16.3237 -17.7647
rtoes -21.4998
lfemur -9.7424 -1.88363 -5.29013
ltibia 34.9824
lfoot 7.76758 -11.9974
ltoes -30.6596
5255
root -0.150233 17.4678 4.16763 18.3975 59.7113 18.002
lowerback 19.045 2.45135 4.46522
upperback 1.19526 4.2395 -0.0587964
thorax -9.04188 1.86598 -3.71318
lowerneck -1.78614 -18.5195 -22.983
upperneck -10.0773 -23.9752 26.1062
head 3.52489 -11.7999 9.55083
rclavicle 3.53837e-014 4.29375e-014
rhumerus 46.5644 29.161 -41.3013
rradius 73.4883
rwrist -12.4462
rhand -2.76199 28.6469
rfingers 7.12502
rthumb 22.9424 -0.0080139
lclavicle 3.53837e-014 4.29375e-014
lhumerus -2.84759 -34.4977 92.5115
lradius 137.813
lwrist 5.65809
lhand -13.1489 3.90343
lfingers 7.12502
lthumb 12.9497 33.4816
rfemur -28.2883 -13.3101 7.3247
rtibia 50.2021
rfoot -16.2722 -17.5851
rtoes -20.7855
lfemur -9.77606 -2.51781 -5.14109
ltibia 34.7638
lfoot 7.35245 -11.7457
ltoes -29.6478
5256
root -0.147615 17.4802 4.14776 18.6078 59.9597 18.0858
lowerback 18.7656 2.61042 4.04799
upperback 1.17571 4.36161 0.0968458
thorax -8.94179 1.9479 -3.322
lowerneck -1.43741 -18.6721 -22.6928
upperneck -10.1104 -24.2453 25.7994
head 3.43065 -11.9625 9.39992
rclavicle -1.94809e-014 1.59028e-015
rhumerus 43.9373 28.6357 -43.2464
rradius 74.5377
rwrist -11.9739
rhand -2.74977 29.1791
rfingers 7.12502
rthumb 22.9541 0.52566
lclavicle -1.94809e-014 1.59028e-015
lhumerus -3.34898 -34.8026 92.6028
lradius 137.708
lwrist 4.84517
lhand -13.3278 3.95273
lfingers 7.12502
lthumb 12.7772 33.5417
rfemur -28.267 -13.5822 7.28927
rtibia 49.9551
rfoot -16.1498 -17.4431
rtoes -20.3032
lfemur -9.88047 -2.66662 -5.17285
ltibia 34.521
lfoot 7.10693 -11.836
ltoes -29.2696
5257
root -0.141442 17.4909 4.12503 18.7325 60.0063 18.1472
lowerback 18.5547 2.68567 3.57782
upperback 1.21122 4.3652 0.232862
thorax -8.83195 1.97592 -2.89592
lowerneck -1.42773 -18.7482 -22.2714
upperneck -10.0229 -24.3526 25.289
head 3.3377 -12.0205 9.17664
rclavicle -7.83212e-014 5.24792e-014
rhumerus 41.6595 28.1867 -45.4272
rradius 75.4968
rwrist -11.8185
rhand -2.6331 29.5507
rfingers 7.12502
rthumb 23.066 0.911154
lclavicle -7.83212e-014 5.24792e-014
lhumerus -3.50622 -34.557 93.4354
lradius 137.376
lwrist 3.39668
lhand -13.7918 3.88444
lfingers 7.12502
lthumb 12.3298 33.5009
rfemur -28.2182 -13.8077 7.20377
rtibia 49.6844
rfoot -15.9531 -17.2389
rtoes -19.8855
lfemur -9.84697 -2.43597 -5.26817
ltibia 34.2172
lfoot 6.97782 -12.1297
ltoes -29.425
5258
root -0.132495 17.5021 4.09915 18.5951 60.0057 17.9148
lowerback 18.3634 2.86789 3.33588
upperback 1.19669 4.5591 0.361041
thorax -8.7586 2.08293 -2.65727
lowerneck -0.785706 -18.7274 -22.0617
upperneck -10.41 -24.3876 25.1061
head 3.07593 -12.0908 9.17266
rclavicle -3.97569e-016 2.8625e-014
rhumerus 39.1221 27.5543 -47.269
rradius 76.7627
rwrist -12.234
rhand -3.23265 29.0246
rfingers 7.12502
rthumb 22.4907 0.314287
lclavicle -3.97569e-016 2.8625e-014
lhumerus -3.77108 -34.3306 94.4959
lradius 137.595
lwrist 4.68554
lhand -12.2952 4.64911
lfingers 7.12502
lthumb 13.7725 34.1733
rfemur -28.1605 -13.962 7.2542
rtibia 49.3748
rfoot -15.7247 -17.0864
rtoes -19.759
lfemur -9.71816 -2.25194 -5.24627
ltibia 33.8293
lfoot 6.69899 -12.4602
ltoes -29.8812
